<svg xmlns="http://www.w3.org/2000/svg" viewBox="0 0 160 160"><circle cx="80" cy="80" r="68.9" style="fill:#fff;stroke:#fff;stroke-linecap:round;stroke-linejoin:round;stroke-width:2px"/><path d="m80 32.63 7.53 27.96c.92 3.41 1.38 5.12 2.28 6.51.8 1.23 1.85 2.29 3.09 3.09 1.39.91 3.1 1.37 6.51 2.28L127.37 80l-27.96 7.53c-3.41.92-5.12 1.38-6.51 2.28-1.23.8-2.29 1.85-3.09 3.09-.91 1.39-1.37 3.1-2.28 6.51L80 127.37l-7.53-27.96c-.92-3.41-1.38-5.12-2.28-6.51-.8-1.23-1.85-2.29-3.09-3.09-1.39-.91-3.1-1.37-6.51-2.28L32.63 80l27.96-7.53c3.41-.92 5.12-1.38 6.51-2.28 1.23-.8 2.29-1.85 3.09-3.09.91-1.39 1.37-3.1 2.28-6.51z" style="fill:#000;stroke:#000;stroke-linecap:round;stroke-linejoin:round;stroke-width:2px"/></svg>