<svg width="28" height="28" viewBox="0 0 28 28" fill="none" xmlns="http://www.w3.org/2000/svg">
  <path d="M22.3646 24.904C22.3728 24.9144 22.3877 24.9161 22.3979 24.9077C24.0424 23.563 25.3611 21.8521 26.2522 19.907C27.1467 17.9546 27.5861 15.819 27.5364 13.6661C27.4868 11.5133 26.9493 9.40132 25.9658 7.49449C24.986 5.59478 23.5898 3.94969 21.8852 2.68617C21.8746 2.67833 21.8598 2.68071 21.852 2.69148L21.3942 3.33216C21.3865 3.34293 21.3889 3.35801 21.3994 3.36585C23.0013 4.55344 24.3133 6.09953 25.234 7.88481C26.1586 9.67725 26.6638 11.6625 26.7105 13.6861C26.7572 15.7098 26.3441 17.7174 25.5033 19.5526C24.6658 21.3805 23.4266 22.9885 21.8813 24.2524C21.8711 24.2607 21.8695 24.2759 21.8777 24.2863L22.3646 24.904Z" fill="#F5F5F5"/>
  <path d="M20.762 1.96415C20.7687 1.95268 20.7649 1.9379 20.7536 1.93115C19.0559 0.916178 17.1636 0.283371 15.2043 0.0755625C13.2372 -0.133082 11.2488 0.0915897 9.37437 0.734286C7.49995 1.37698 5.78357 2.42262 4.34201 3.80003C2.90621 5.17195 1.77659 6.84094 1.02936 8.69424C1.02439 8.70656 1.03022 8.72063 1.04235 8.72567L1.7634 9.02445C1.77556 9.02949 1.78936 9.02355 1.79436 9.01123C2.49674 7.26967 3.5584 5.7013 4.90768 4.41203C6.26277 3.11726 7.87618 2.13436 9.6381 1.53023C11.4 0.926093 13.2692 0.714903 15.1183 0.911026C16.9595 1.10632 18.7379 1.7009 20.3334 2.65455C20.3447 2.66129 20.3592 2.6575 20.3659 2.64603L20.762 1.96415Z" fill="#F5F5F5"/>
  <path d="M0.484213 10.4182C0.471555 10.4147 0.458571 10.4224 0.455233 10.4353C0.14454 11.6332 -0.00842228 12.8677 0.000357525 14.1064C0.000452998 14.1197 0.0111715 14.1304 0.0242696 14.1302L0.803018 14.1229C0.816112 14.1227 0.826621 14.1118 0.82653 14.0986C0.818407 12.9351 0.962071 11.7757 1.25376 10.6506C1.2571 10.6377 1.24956 10.6245 1.2369 10.6211L0.484213 10.4182Z" fill="#F5F5F5"/>
  <path d="M0.145776 15.8645C0.132803 15.8663 0.1237 15.8784 0.125462 15.8916C0.375854 17.7639 0.996485 19.5652 1.95005 21.187C2.90764 22.8156 4.18107 24.2292 5.69284 25.3418C7.20461 26.4544 8.92323 27.2428 10.7443 27.6591C12.5576 28.0736 14.4347 28.1105 16.2626 27.7677C16.2755 27.7653 16.284 27.7527 16.2816 27.7397L16.1393 26.9612C16.1369 26.9482 16.1245 26.9395 16.1116 26.9419C14.3939 27.2639 12.6298 27.2291 10.9258 26.8395C9.21405 26.4482 7.59854 25.7071 6.17747 24.6613C4.7564 23.6154 3.55939 22.2867 2.65923 20.7557C1.76315 19.2317 1.17983 17.539 0.944327 15.7796C0.942561 15.7664 0.930623 15.7571 0.917639 15.7589L0.145776 15.8645Z" fill="#F5F5F5"/>
  <path d="M17.6453 27.4075C17.649 27.4203 17.6622 27.4276 17.6748 27.4238C18.8768 27.0619 20.0247 26.5349 21.0865 25.8574C21.0976 25.8503 21.101 25.8354 21.094 25.8241L20.679 25.1543C20.6721 25.143 20.6574 25.1396 20.6463 25.1467C19.6489 25.783 18.5708 26.278 17.4418 26.618C17.4293 26.6217 17.4221 26.6351 17.4258 26.6479L17.6453 27.4075Z" fill="#F5F5F5"/>
  <path d="M23.6598 20.968C19.8723 26.5189 12.3744 27.8981 6.91296 24.0486C1.45145 20.1991 0.0944159 12.5786 3.88196 7.02771C7.66951 1.47684 15.1673 0.0976289 20.6288 3.94715C26.0904 7.79666 27.4474 15.4172 23.6598 20.968ZM5.67306 8.29017C2.57153 12.8356 3.68275 19.0759 8.15506 22.2282C12.6274 25.3805 18.7672 24.2511 21.8687 19.7056C24.9703 15.1601 23.8591 8.91983 19.3867 5.76756C14.9144 2.61526 8.7746 3.74465 5.67306 8.29017Z" fill="#F5F5F5"/>
</svg>